<svg xmlns="http://www.w3.org/2000/svg" style="display: none;">
  <!-- Ícones de navegação -->
  <symbol id="icon-bars" viewBox="0 0 448 512"><path fill="currentColor" d="M0 96C0 78.3 14.3 64 32 64H416c17.7 0 32 14.3 32 32s-14.3 32-32 32H32C14.3 128 0 113.7 0 96zM0 256c0-17.7 14.3-32 32-32H416c17.7 0 32 14.3 32 32s-14.3 32-32 32H32c-17.7 0-32-14.3-32-32zM448 416c0 17.7-14.3 32-32 32H32c-17.7 0-32-14.3-32-32s14.3-32 32-32H416c17.7 0 32 14.3 32 32z"/></symbol>
  <symbol id="icon-xmark" viewBox="0 0 384 512"><path fill="currentColor" d="M342.6 150.6c12.5-12.5 12.5-32.8 0-45.3s-32.8-12.5-45.3 0L192 210.7 86.6 105.4c-12.5-12.5-32.8-12.5-45.3 0s-12.5 32.8 0 45.3L146.7 256 41.4 361.4c-12.5 12.5-12.5 32.8 0 45.3s32.8 12.5 45.3 0L192 301.3 297.4 406.6c12.5 12.5 32.8 12.5 45.3 0s12.5-32.8 0-45.3L237.3 256 342.6 150.6z"/></symbol>
  <symbol id="icon-folder" viewBox="0 0 512 512"><path fill="currentColor" d="M64 480H448c35.3 0 64-28.7 64-64V160c0-35.3-28.7-64-64-64H288c-10.1 0-19.6-4.7-25.6-12.8L243.2 57.6C237.1 49.5 227.6 44.8 217.5 44.8H64C28.7 44.8 0 73.5 0 108.8V416c0 35.3 28.7 64 64 64z"/></symbol>
  <symbol id="icon-folder-open" viewBox="0 0 576 512"><path fill="currentColor" d="M88.7 223.8L0 375.8V96C0 60.7 28.7 32 64 32H181.5c17 0 33.3 6.7 45.3 18.7l26.5 26.5c12 12 28.3 18.7 45.3 18.7H416c35.3 0 64 28.7 64 64v32H144c-22.8 0-43.8 12.1-55.3 31.8zm27.6 16.1C122 221.4 144.9 208 170 208H518.3c19.9 0 38.2 11.2 47 28.7L576.1 368c11.1 19.1 11.1 42.8 0 61.9l-10.7 18.6C555.5 465.7 536.2 477 516 477H170c-19.9 0-38.2-11.2-47-28.7L26.1 306.7c-8.5-14.7-8.5-32.8 0-47.5l88.2-19.3z"/></symbol>
  <symbol id="icon-file" viewBox="0 0 384 512"><path fill="currentColor" d="M64 464c-8.8 0-16-7.2-16-16V64c0-8.8 7.2-16 16-16H224v80c0 17.7 14.3 32 32 32h80V448c0 8.8-7.2 16-16 16H64zM64 0C28.7 0 0 28.7 0 64V448c0 35.3 28.7 64 64 64H320c35.3 0 64-28.7 64-64V154.5c0-17-6.7-33.3-18.7-45.3L274.7 18.7C262.7 6.7 246.5 0 229.5 0H64zm48 256a32 32 0 1 0 0-64 32 32 0 1 0 0 64zm80-64c-8.8 0-16 7.2-16 16v96c0 8.8 7.2 16 16 16h96c8.8 0 16-7.2 16-16s-7.2-16-16-16H224V224c0-8.8-7.2-16-16-16H192z"/></symbol>
  <symbol id="icon-code" viewBox="0 0 490 490"><g fill="currentColor"><path d="M245,0C109.69,0,0,109.69,0,245s109.69,245,245,245s245-109.69,245-245S380.31,0,245,0z M245,459.375c-118.206,0-214.375-96.168-214.375-214.375c0-118.206,96.169-214.375,214.375-214.375S459.375,126.794,459.375,245C459.375,363.207,363.206,459.375,245,459.375z"/><polygon points="95.583,258.914 203.967,306.033 203.967,275.528 128.362,245.546 203.967,216.641 203.967,185.911 95.583,232.82"/><polygon points="213.986,326.744 236.312,326.744 275.894,163.256 253.135,163.256"/><polygon points="285.928,216.431 361.638,245.86 285.928,275.633 285.928,306.153 394.416,258.914 394.416,233.03 285.928,186.12"/></g></symbol>
  <symbol id="icon-eye" viewBox="0 0 24 24" fill="none"><circle cx="12" cy="13" r="2" stroke="currentColor" stroke-linejoin="round"/><path d="M12 7.5C7.69517 7.5 4.47617 11.0833 3.39473 12.4653C3.14595 12.7832 3.14595 13.2168 3.39473 13.5347C4.47617 14.9167 7.69517 18.5 12 18.5C16.3048 18.5 19.5238 14.9167 20.6053 13.5347C20.8541 13.2168 20.8541 12.7832 20.6053 12.4653C19.5238 11.0833 16.3048 7.5 12 7.5Z" stroke="currentColor" stroke-linecap="round" stroke-linejoin="round"/></symbol>
  <symbol id="icon-copy" viewBox="0 0 1920 1920"><path fill="currentColor" fill-rule="evenodd" d="M0 1919.887h1467.88V452.008H0v1467.88ZM1354.965 564.922v1242.051H112.914V564.922h1242.051ZM1920 0v1467.992h-338.741v-113.027h225.827V112.914H565.035V338.74H452.008V0H1920ZM338.741 1016.93h790.397V904.016H338.74v112.914Zm0 451.062h790.397v-113.027H338.74v113.027Zm0-225.588h564.57v-112.913H338.74v112.913Z"/></symbol>
  <symbol id="icon-check" viewBox="0 0 448 512"><path fill="currentColor" d="M438.6 105.4c12.5 12.5 12.5 32.8 0 45.3l-256 256c-12.5 12.5-32.8 12.5-45.3 0l-128-128c-12.5-12.5-12.5-32.8 0-45.3s32.8-12.5 45.3 0L160 338.7 393.4 105.4c12.5-12.5 32.8-12.5 45.3 0z"/></symbol>
  <symbol id="icon-external-link" viewBox="0 0 512 512"><path fill="currentColor" d="M320 0c-17.7 0-32 14.3-32 32s14.3 32 32 32h82.7L201.4 265.4c-12.5 12.5-12.5 32.8 0 45.3s32.8 12.5 45.3 0L448 109.3V192c0 17.7 14.3 32 32 32s32-14.3 32-32V32c0-17.7-14.3-32-32-32H320zM80 32C35.8 32 0 67.8 0 112V432c0 44.2 35.8 80 80 80H400c44.2 0 80-35.8 80-80V320c0-17.7-14.3-32-32-32s-32 14.3-32 32V432c0 8.8-7.2 16-16 16H80c-8.8 0-16-7.2-16-16V112c0-8.8 7.2-16 16-16H192c17.7 0 32-14.3 32-32s-14.3-32-32-32H80z"/></symbol>
  <symbol id="icon-envelope" viewBox="0 0 512 512"><path fill="currentColor" d="M48 64C21.5 64 0 85.5 0 112c0 15.1 7.1 29.3 19.2 38.4L236.8 313.6c11.4 8.5 27 8.5 38.4 0L492.8 150.4c12.1-9.1 19.2-23.3 19.2-38.4c0-26.5-21.5-48-48-48H48zM0 176V384c0 35.3 28.7 64 64 64H448c35.3 0 64-28.7 64-64V176L294.4 339.2c-22.8 17.1-54 17.1-76.8 0L0 176z"/></symbol>
  <symbol id="icon-github" viewBox="0 0 24 24"><title>GitHub</title><path fill="currentColor" d="M12 .297c-6.63 0-12 5.373-12 12 0 5.303 3.438 9.8 8.205 11.385.6.113.82-.258.82-.577 0-.285-.01-1.04-.015-2.04-3.338.724-4.042-1.61-4.042-1.61C4.422 18.07 3.633 17.7 3.633 17.7c-1.087-.744.084-.729.084-.729 1.205.084 1.838 1.236 1.838 1.236 1.07 1.835 2.809 1.305 3.495.998.108-.776.417-1.305.76-1.605-2.665-.3-5.466-1.332-5.466-5.93 0-1.31.465-2.38 1.235-3.22-.135-.303-.54-1.523.105-3.176 0 0 1.005-.322 3.3 1.23.96-.267 1.98-.399 3-.405 1.02.006 2.04.138 3 .405 2.28-1.552 3.285-1.23 3.285-1.23.645 1.653.24 2.873.12 3.176.765.84 1.23 1.91 1.23 3.22 0 4.61-2.805 5.625-5.475 5.92.42.36.81 1.096.81 2.22 0 1.606-.015 2.896-.015 3.286 0 .315.21.69.825.57C20.565 22.092 24 17.592 24 12.297c0-6.627-5.373-12-12-12"/></symbol>
  <symbol id="icon-linkedin" viewBox="0 0 448 512"><path fill="currentColor" d="M416 32H31.9C14.3 32 0 46.5 0 64.3v383.4C0 465.5 14.3 480 31.9 480H416c17.6 0 32-14.5 32-32.3V64.3c0-17.8-14.4-32.3-32-32.3zM135.4 416H69V202.2h66.5V416zm-33.2-243c-21.3 0-38.5-17.3-38.5-38.5S80.9 96 102.2 96c21.2 0 38.5 17.3 38.5 38.5 0 21.3-17.2 38.5-38.5 38.5zm282.1 243h-66.4V312c0-24.8-.5-56.7-34.5-56.7-34.6 0-39.9 27-39.9 54.9V416h-66.4V202.2h63.7v29.2h.9c8.9-16.8 30.6-34.5 62.9-34.5 67.2 0 79.7 44.3 79.7 101.9V416z"/></symbol>
  <symbol id="icon-terminal" viewBox="0 0 576 512"><path fill="currentColor" d="M9.4 86.6C-3.1 74.1-3.1 53.9 9.4 41.4s32.8-12.5 45.3 0l192 192c12.5 12.5 12.5 32.8 0 45.3l-192 192c-12.5 12.5-32.8 12.5-45.3 0s-12.5-32.8 0-45.3L178.7 256 9.4 86.6zM576 128c0-17.7-14.3-32-32-32H192c-17.7 0-32 14.3-32 32s14.3 32 32 32H544c17.7 0 32-14.3 32-32zm0 256c0-17.7-14.3-32-32-32H192c-17.7 0-32 14.3-32 32s14.3 32 32 32H544c17.7 0 32-14.3 32-32z"/></symbol>
  <symbol id="icon-bug" viewBox="0 0 512 512"><path fill="currentColor" d="M256 0c53 0 96 43 96 96v3.6c0 15.7-12.7 28.4-28.4 28.4H188.4c-15.7 0-28.4-12.7-28.4-28.4V96c0-53 43-96 96-96zM41.4 105.4c12.5-12.5 32.8-12.5 45.3 0l64 64c.7.7 1.3 1.4 1.9 2.1 14.2-7.3 30.4-11.5 47.5-11.5H310.9c17.1 0 33.2 4.2 47.5 11.5.6-.7 1.2-1.4 1.9-2.1l64-64c12.5-12.5 32.8-12.5 45.3 0s12.5 32.8 0 45.3l-64 64c-.7.7-1.4 1.3-2.1 1.9 7.3 14.2 11.5 30.4 11.5 47.5v64H192V272.1c0-17.1 4.2-33.2 11.5-47.5-.7-.6-1.4-1.2-2.1-1.9l-64-64c-12.5-12.5-12.5-32.8 0-45.3zM288 240c0-8.8 7.2-16 16-16s16 7.2 16 16v32H288V240zM144 352v32c0 17.1 4.2 33.2 11.5 47.5-.7.6-1.4 1.2-2.1 1.9l-64 64c-12.5 12.5-32.8 12.5-45.3 0s-12.5-32.8 0-45.3l64-64c.7-.7 1.4-1.3 2.1-1.9-7.3-14.2-11.5-30.4-11.5-47.5V352H144zm224 0H480v32c0 17.1-4.2 33.2-11.5 47.5.7.6 1.4 1.2 2.1 1.9l64 64c12.5 12.5 12.5 32.8 0 45.3s-32.8 12.5-45.3 0l-64-64c-.7-.7-1.4-1.3-2.1-1.9-14.2 7.3-30.4 11.5-47.5 11.5H368c-8.8 0-16-7.2-16-16s7.2-16 16-16h80V352H368c-8.8 0-16-7.2-16-16s7.2-16 16-16h80zm-192 0c8.8 0 16 7.2 16 16s-7.2 16-16 16H96v32h80c8.8 0 16 7.2 16 16s-7.2 16-16 16H96c-17.1 0-33.2-4.2-47.5-11.5.6-.7 1.2-1.4 1.9-2.1l64-64c12.5-12.5 12.5-32.8 0-45.3s-32.8-12.5-45.3 0l-64 64c-.7.7-1.3 1.4-1.9 2.1C4.2 417.2 0 401.1 0 384V352H176z"/></symbol>
  <symbol id="icon-network" viewBox="0 0 640 512"><path fill="currentColor" d="M464 0c-26.5 0-48 21.5-48 48c0 20.9 13.4 38.7 32 45.3V192c0 17.7 14.3 32 32 32h64c17.7 0 32-14.3 32-32V93.3c18.6-6.6 32-24.4 32-45.3c0-26.5-21.5-48-48-48H464zM512 93.3V192h64V93.3c0-7.9-5.8-14.7-13.6-15.8c-4.3-.6-8.6-1.1-13.1-1.1s-8.8.5-13.1 1.1c-7.8 1.1-13.1 7.9-13.1 15.8zM336 48c0-26.5-21.5-48-48-48s-48 21.5-48 48c0 20.9 13.4 38.7 32 45.3V192c0 17.7 14.3 32 32 32h32c17.7 0 32-14.3 32-32V93.3c18.6-6.6 32-24.4 32-45.3zm-32 45.3V192H272V93.3c0-7.9-5.8-14.7-13.6-15.8C254.1 77 249.8 76.5 245.3 76.5s-8.8.5-13.1 1.1c-7.8 1.1-13.1 7.9-13.1 15.8V192H192V93.3c0-7.9-5.8-14.7-13.6-15.8C173.1 77 168.8 76.5 164.3 76.5s-8.8.5-13.1 1.1c-7.8 1.1-13.1 7.9-13.1 15.8V192H112c-17.7 0-32-14.3-32-32V93.3C62.6 86.7 48 68.9 48 48C48 21.5 69.5 0 96 0s48 21.5 48 48c0 20.9 13.4 38.7 32 45.3V192c0 17.7 14.3 32 32 32h16v96H112c-17.7 0-32 14.3-32 32v66.7C62.6 425.3 48 443.1 48 464c0 26.5 21.5 48 48 48s48-21.5 48-48c0-20.9-13.4-38.7-32-45.3V320H192v98.7c-18.6 6.6-32 24.4-32 45.3c0 26.5 21.5 48 48 48s48-21.5 48-48c0-20.9-13.4-38.7-32-45.3V320h16c17.7 0 32-14.3 32-32V224h16c17.7 0 32-14.3 32-32V93.3c18.6-6.6 32-24.4 32-45.3zm272 309.4V320H512v98.7c-18.6 6.6-32 24.4-32 45.3c0 26.5 21.5 48 48 48s48-21.5 48-48c0-20.9-13.4-38.7-32-45.3zM592 512c26.5 0 48-21.5 48-48c0-20.9-13.4-38.7-32-45.3V320c0-17.7-14.3-32-32-32H512c-17.7 0-32 14.3-32 32v98.7c-18.6 6.6-32 24.4-32 45.3c0 26.5 21.5 48 48 48h96z"/></symbol>
  <symbol id="icon-circle-exclamation" viewBox="0 0 512 512"><path fill="currentColor" d="M256 512A256 256 0 1 0 256 0a256 256 0 1 0 0 512zm0-384c13.3 0 24 10.7 24 24V264c0 13.3-10.7 24-24 24s-24-10.7-24-24V152c0-13.3 10.7-24 24-24zM224 352a32 32 0 1 1 64 0 32 32 0 1 1-64 0z"/></symbol>
  <symbol id="icon-triangle-exclamation" viewBox="0 0 512 512"><path fill="currentColor" d="M256 32c14.2 0 27.3 7.5 34.5 19.8l216 368c7.3 12.4 7.3 27.7.2 40.1S486.3 480 472 480H40c-14.3 0-27.6-7.7-34.7-20.1s-7-27.8.2-40.1l216-368C228.7 39.5 241.8 32 256 32zm0 128c-13.3 0-24 10.7-24 24V296c0 13.3 10.7 24 24 24s24-10.7 24-24V184c0-13.3-10.7-24-24-24zm32 224a32 32 0 1 0-64 0 32 32 0 1 0 64 0z"/></symbol>
  <symbol id="icon-circle-info" viewBox="0 0 512 512"><path fill="currentColor" d="M256 512A256 256 0 1 0 256 0a256 256 0 1 0 0 512zM216 336h24V272H216c-13.3 0-24-10.7-24-24s10.7-24 24-24h48c13.3 0 24 10.7 24 24v88h8c13.3 0 24 10.7 24 24s-10.7 24-24 24H216c-13.3 0-24-10.7-24-24s10.7-24 24-24zm40-208a32 32 0 1 1 0 64 32 32 0 1 1 0-64z"/></symbol>
  <symbol id="icon-ban" viewBox="0 0 512 512"><path fill="currentColor" d="M367.2 412.5L99.5 144.8C77.1 176.1 64 214.5 64 256c0 106 86 192 192 192c41.5 0 79.9-13.1 111.2-35.5zm45.3-45.3C434.9 335.9 448 297.5 448 256c0-106-86-192-192-192c-41.5 0-79.9 13.1-111.2 35.5L412.5 367.2zM0 256a256 256 0 1 1 512 0A256 256 0 1 1 0 256z"/></symbol>
  <symbol id="icon-bell" viewBox="0 0 448 512"><path fill="currentColor" d="M224 0c-17.7 0-32 14.3-32 32V51.2C119 66 64 130.6 64 208v25.4c0 45.4-15.5 89.5-43.8 124.9L5.3 377c-5.8 7.2-6.9 17.1-2.9 25.4S14.8 416 24 416H424c9.2 0 17.6-5.3 21.6-13.6s2.9-18.2-2.9-25.4l-14.9-18.6C399.5 322.9 384 278.8 384 233.4V208c0-77.4-55-142-128-156.8V32c0-17.7-14.3-32-32-32zm0 96c61.9 0 112 50.1 112 112v25.4c0 47.9 13.9 94.6 39.7 134.6H72.3C98.1 328 112 281.3 112 233.4V208c0-61.9 50.1-112 112-112zm64 352H224 160c0 17 6.7 33.3 18.7 45.3s28.3 18.7 45.3 18.7s33.3-6.7 45.3-18.7s18.7-28.3 18.7-45.3z"/></symbol>
  <symbol id="icon-home" viewBox="0 0 576 512"><path fill="currentColor" d="M575.8 255.5c0 18-15 32.1-32 32.1h-32l.7 160.2c0 2.7-.2 5.4-.5 8.1V472c0 22.1-17.9 40-40 40H456c-1.1 0-2.2 0-3.3-.1c-1.4.1-2.8.1-4.2.1H416 392c-22.1 0-40-17.9-40-40V448 384c0-17.7-14.3-32-32-32H256c-17.7 0-32 14.3-32 32v64 24c0 22.1-17.9 40-40 40H160 128.1c-1.5 0-3-.1-4.5-.2c-1.2.1-2.4.2-3.6.2H104c-22.1 0-40-17.9-40-40V360c0-.9 0-1.9.1-2.8V256H32c-17 0-32-14-32-32.1c0-9 3-17 10-24L266.4 8c7-7 15-8 22-8s15 2 21 7L564.8 231.5c8 7 12 15 11 24z"/></symbol>
  <symbol id="icon-info-circle" viewBox="0 0 512 512"><path fill="currentColor" d="M256 512A256 256 0 1 0 256 0a256 256 0 1 0 0 512zM216 336h24V272H216c-13.3 0-24-10.7-24-24s10.7-24 24-24h48c13.3 0 24 10.7 24 24v88h8c13.3 0 24 10.7 24 24s-10.7 24-24 24H216c-13.3 0-24-10.7-24-24s10.7-24 24-24zm40-208a32 32 0 1 1 0 64 32 32 0 1 1 0-64z"/></symbol>
  <symbol id="icon-magnifying-glass" viewBox="0 0 512 512"><path fill="currentColor" d="M416 208c0 45.9-14.9 88.3-40 122.7L502.6 457.4c12.5 12.5 12.5 32.8 0 45.3s-32.8 12.5-45.3 0L330.7 376c-34.4 25.2-76.8 40-122.7 40C93.1 416 0 322.9 0 208S93.1 0 208 0S416 93.1 416 208zM208 352a144 144 0 1 0 0-288 144 144 0 1 0 0 288z"/></symbol>
  <!-- Ícones de tipos de arquivo -->
  <symbol id="icon-java" viewBox="0 0 24 24"><path fill="currentColor" fill-rule="evenodd" clip-rule="evenodd" d="M10 1C9.73478 1 9.48043 1.10536 9.29289 1.29289L3.29289 7.29289C3.10536 7.48043 3 7.73478 3 8V20C3 21.6569 4.34315 23 6 23H7C7.55228 23 8 22.5523 8 22C8 21.4477 7.55228 21 7 21H6C5.44772 21 5 20.5523 5 20V9H10C10.5523 9 11 8.55228 11 8V3H18C18.5523 3 19 3.44772 19 4V9C19 9.55228 19.4477 10 20 10C20.5523 10 21 9.55228 21 9V4C21 2.34315 19.6569 1 18 1H10ZM9 7H6.41421L9 4.41421V7ZM19 14H10C9.44772 14 9 14.4477 9 15V17.5C9 20.5376 11.4624 23 14.5 23C17.0176 23 19.14 21.3085 19.793 19H20.5C21.8807 19 23 17.8807 23 16.5C23 15.1193 21.8807 14 20.5 14H19ZM20.5 17H20V16H20.5C20.7761 16 21 16.2239 21 16.5C21 16.7761 20.7761 17 20.5 17ZM11 16H18V17.5C18 19.433 16.433 21 14.5 21C12.567 21 11 19.433 11 17.5V16ZM13.4472 9.10557C13.9412 9.35255 14.1414 9.95322 13.8944 10.4472C13.7852 10.6657 13.7852 10.8343 13.8944 11.0528C14.1414 11.5468 13.9412 12.1474 13.4472 12.3944C12.9532 12.6414 12.3525 12.4412 12.1056 11.9472C11.7148 11.1657 11.7148 10.3343 12.1056 9.5528C12.3525 9.05882 12.9532 8.85858 13.4472 9.10557ZM16.8321 8.4453C16.5257 7.98577 15.9048 7.8616 15.4453 8.16795C14.9858 8.4743 14.8616 9.09517 15.1679 9.5547C15.4142 9.92407 15.5 10.2343 15.5 10.5C15.5 10.7657 15.4142 11.0759 15.1679 11.4453C14.8616 11.9048 14.9858 12.5257 15.4453 12.8321C15.9048 13.1384 16.5257 13.0142 16.8321 12.5547C17.2525 11.9241 17.5 11.2343 17.5 10.5C17.5 9.76569 17.2525 9.07593 16.8321 8.4453Z"/></symbol>
  <symbol id="icon-xml" viewBox="0 0 384 512"><path fill="currentColor" d="M64 464c-8.8 0-16-7.2-16-16V64c0-8.8 7.2-16 16-16H224v80c0 17.7 14.3 32 32 32h80V448c0 8.8-7.2 16-16 16H64zM64 0C28.7 0 0 28.7 0 64V448c0 35.3 28.7 64 64 64H320c35.3 0 64-28.7 64-64V154.5c0-17-6.7-33.3-18.7-45.3L274.7 18.7C262.7 6.7 246.5 0 229.5 0H64zm48 256a32 32 0 1 0 0-64 32 32 0 1 0 0 64zm80-64c-8.8 0-16 7.2-16 16v96c0 8.8 7.2 16 16 16h96c8.8 0 16-7.2 16-16s-7.2-16-16-16H224V224c0-8.8-7.2-16-16-16H192z"/></symbol>
  <symbol id="icon-markdown" viewBox="0 0 640 512"><path fill="currentColor" d="M593.8 59.1H46.2C20.7 59.1 0 79.8 0 105.2v301.5c0 25.5 20.7 46.2 46.2 46.2h547.6c25.5 0 46.2-20.7 46.1-46.1V105.2c0-25.4-20.7-46.1-46.1-46.1zM338.5 360.6H277v-120l-61.5 76.9-61.5-76.9v120H92.3V151.4h61.5l61.5 76.9 61.5-76.9h61.5v209.2zm135.3 3.1L381.5 256H443V151.4h61.5V256H566l-92.2 107.7z"/></symbol>
  <symbol id="icon-json" viewBox="0 0 384 512"><path fill="currentColor" d="M64 464c-8.8 0-16-7.2-16-16V64c0-8.8 7.2-16 16-16H224v80c0 17.7 14.3 32 32 32h80V448c0 8.8-7.2 16-16 16H64zM64 0C28.7 0 0 28.7 0 64V448c0 35.3 28.7 64 64 64H320c35.3 0 64-28.7 64-64V154.5c0-17-6.7-33.3-18.7-45.3L274.7 18.7C262.7 6.7 246.5 0 229.5 0H64zm48 256a32 32 0 1 0 0-64 32 32 0 1 0 0 64zm80-64c-8.8 0-16 7.2-16 16v96c0 8.8 7.2 16 16 16h96c8.8 0 16-7.2 16-16s-7.2-16-16-16H224V224c0-8.8-7.2-16-16-16H192z"/></symbol>
  <symbol id="icon-git" viewBox="0 0 448 512"><path fill="currentColor" d="M439.55 236.05L244 40.45a28.87 28.87 0 0 0-40.81 0l-40.66 40.63 51.52 51.52c27.06-9.14 52.68 16.77 43.39 43.68l49.66 49.66c34.23-11.8 61.18 31 35.47 56.69-26.49 26.49-70.21-2.87-56-37.34L240.22 199v121.85c12.84 5.49 26 16.38 26 29.09 0 17.67-14.33 32-32 32s-32-14.33-32-32c0-12.71 13.16-23.6 26-29.09V199.22l-31.3 31.3c-13.79-4.52-28.78-1.31-39.22 9.19a32.32 32.32 0 0 0-9.13 31.47L64 416a32 32 0 1 0 64 0v-83.53l48.4-48.4c.24-.24.48-.48.72-.72L48.17 186.42a28.85 28.85 0 0 0 0 40.81l195.38 195.38a28.86 28.86 0 0 0 40.8 0l194.33-194.33a28.86 28.86 0 0 0-.01-40.83z"/></symbol>
  <symbol id="icon-config" viewBox="0 0 512 512"><path fill="currentColor" d="M495.9 166.6c3.2 8.7.5 18.4-6.4 24.6l-43.3 39.4c1.1 8.3 1.7 16.8 1.7 25.4s-.6 17.1-1.7 25.4l43.3 39.4c6.9 6.2 9.6 15.9 6.4 24.6c-4.4 11.9-9.7 23.3-15.8 34.3l-4.7 8.1c-6.6 11-14 21.4-22.1 31.2c-5.9 7.2-15.7 9.6-24.5 6.8l-55.7-17.7c-13.4 10.3-28.2 18.9-44 25.4l-12.5 57.1c-2 9.1-9 16.3-18.2 17.8c-13.8 2.3-28 3.5-42.5 3.5s-28.7-1.2-42.5-3.5c-9.2-1.5-16.2-8.7-18.2-17.8l-12.5-57.1c-15.8-6.5-30.6-15.1-44-25.4L83.1 425.9c-8.8 2.8-18.6.3-24.5-6.8c-8.1-9.8-15.5-20.2-22.1-31.2l-4.7-8.1c-6.1-11-11.4-22.4-15.8-34.3c-3.2-8.7-.5-18.4 6.4-24.6l43.3-39.4C64.6 273.1 64 264.6 64 256s.6-17.1 1.7-25.4L22.4 191.2c-6.9-6.2-9.6-15.9-6.4-24.6c4.4-11.9 9.7-23.3 15.8-34.3l4.7-8.1c6.6-11 14-21.4 22.1-31.2c5.9-7.2 15.7-9.6 24.5-6.8l55.7 17.7c13.4-10.3 28.2-18.9 44-25.4l12.5-57.1c2-9.1 9-16.3 18.2-17.8C227.3 1.2 241.5 0 256 0s28.7 1.2 42.5 3.5c9.2 1.5 16.2 8.7 18.2 17.8l12.5 57.1c15.8 6.5 30.6 15.1 44 25.4l55.7-17.7c8.8-2.8 18.6-.3 24.5 6.8c8.1 9.8 15.5 20.2 22.1 31.2l4.7 8.1c6.1 11 11.4 22.4 15.8 34.3zM256 336a80 80 0 1 0 0-160 80 80 0 1 0 0 160z"/></symbol>
  <symbol id="icon-shell" viewBox="0 0 448 512"><path fill="currentColor" d="M448 96v320c0 35.3-28.7 64-64 64H64c-35.3 0-64-28.7-64-64V96c0-35.3 28.7-64 64-64h320c35.3 0 64 28.7 64 64zM48 144c0-8.8 7.2-16 16-16h320c8.8 0 16 7.2 16 16v224c0 8.8-7.2 16-16 16H64c-8.8 0-16-7.2-16-16V144zm64 32c-8.8 0-16 7.2-16 16s7.2 16 16 16h192c8.8 0 16-7.2 16-16s-7.2-16-16-16H112zm0 64c-8.8 0-16 7.2-16 16s7.2 16 16 16h256c8.8 0 16-7.2 16-16s-7.2-16-16-16H112zm0 64c-8.8 0-16 7.2-16 16s7.2 16 16 16h128c8.8 0 16-7.2 16-16s-7.2-16-16-16H112z"/></symbol>
</svg>
